<svg xmlns:xlink="http://www.w3.org/1999/xlink" xmlns="http://www.w3.org/2000/svg" class="cl-icon" aria-hidden="true" width="24"  height="24" ><defs><symbol id="cl-icon-whatsapp" viewBox="0 0 24 24">
    <path d="m6.33498656 22.3451527c1.75199361.9498366 3.71529704 1.4474696 5.71041044 1.447402h.0047376c6.5860803 0 11.9474862-5.3346429 11.9498654-11.8919556.0020846-3.15537614-1.2559643-6.1822414-3.4972012-8.41424022s-5.2819244-3.48635888-8.4526642-3.48635888c-6.58686998 0-11.94748618 5.33464296-11.94985499 11.8911698-.00271045 2.0870498.5474369 4.1379382 1.59499849 5.9459778l-1.6952781 6.1628524zm5.71909604-20.3367056c2.6346602.00145841 5.1608294 1.04440092 7.0227789 2.89939202 1.8619496 1.8549911 2.9071582 4.37007952 2.9056949 6.99197428 0 5.4501522-4.4581028 9.8842943-9.9324218 9.8842943-1.7781138 0-3.52351816-.4757867-5.05346055-1.3774679l-.36321748-.2145172-3.75851128.981436.99726885-3.650722-.23688096-.37403c-1.91873676-3.0478319-2.02355753-6.892004-.27373523-10.0389011 1.7498223-3.14689716 5.07841434-5.10038624 8.69248465-5.1014584zm.2455666 14.8024752c.5558077.2395602 1.1240789.4493998 1.7023846.6286219.6091419.1846486 1.2532285.2250116 1.8808348.1178667.5732519-.084864 1.7663424-.7189864 2.0150674-1.4143994s.248725-1.288675.1745023-1.4143993c-.0742227-.1257244-.2739923-.1988018-.5724624-.3473137-.2984699-.1485119-1.7663423-.8643551-2.0403346-.9665063-.2739924-.102151-.473762-.1485119-.6719523.148512-.1981905.2970239-.7714424.9665062-.9475239 1.165308-.1760815.1988016-.348215.2231607-.6474747.0746488-.2992596-.148512-1.2633651-.4628229-2.4011833-1.4749043-.88751401-.7857774-1.48682283-1.7609272-1.65816673-2.0587368-.1713439-.2978097-.01895047-.4581083.13107407-.6066202.13423254-.1327964.29847005-.3465279.44770507-.5201847.12268671-.15030284.22318998-.31726132.29846999-.49582548.080108-.166844.0706148-.3625796-.0252673-.52097048-.07422271-.14851192-.67116273-1.61084371-.91988774-2.20567722-.24240821-.57990375-.48876435-.501326-.67195233-.50996956-.18318798-.00864355-.37348236-.01100088-.57246233-.01100088-.3057579.00811188-.59424478.1428273-.79592003.37167272-.27399232.29780964-1.04543466 1.016796-1.04543466 2.47912782 0 1.46233178 1.06991235 2.87594538 1.21914736 3.07396128s2.10429252 3.1996857 5.10083673 4.4867891z" fill-rule="evenodd"></path>
</symbol></defs>
      <use href="#cl-icon-whatsapp"></use>
    </svg>